<svg xmlns="http://www.w3.org/2000/svg" viewBox="0 0 192 192" width="192" height="192">
  <rect width="192" height="192" rx="40" fill="#0a1f0a"/>
  <circle cx="96" cy="96" r="72" fill="#ffffff"/>
  <circle cx="96" cy="96" r="72" fill="none" stroke="#0a1f0a" stroke-width="4"/>
  <!-- Soccer ball pattern -->
  <!-- Central pentagon -->
  <polygon points="96,60 116,74 108,97 84,97 76,74" fill="#0a1f0a"/>
  <!-- Surrounding pentagons (partial / clipped by circle) -->
  <polygon points="96,28 112,40 116,60 96,60 76,60 80,40" fill="#0a1f0a"/>
  <polygon points="130,48 144,64 138,84 116,74 116,60 130,48" fill="#0a1f0a"/>
  <polygon points="144,100 136,120 116,124 108,104 116,84 136,84" fill="#0a1f0a" opacity="0.85"/>
  <polygon points="84,124 64,124 56,104 64,84 84,84 92,104" fill="#0a1f0a" opacity="0.85"/>
  <polygon points="48,84 62,64 76,60 76,74 54,84 48,100" fill="#0a1f0a"/>
  <!-- Seams connecting pentagons -->
  <line x1="96" y1="28" x2="96" y2="60" stroke="#5cb827" stroke-width="2"/>
  <line x1="116" y1="74" x2="130" y2="48" stroke="#5cb827" stroke-width="2"/>
  <line x1="108" y1="97" x2="116" y2="124" stroke="#5cb827" stroke-width="2"/>
  <line x1="84" y1="97" x2="64" y2="124" stroke="#5cb827" stroke-width="2"/>
  <line x1="76" y1="74" x2="48" y2="84" stroke="#5cb827" stroke-width="2"/>
</svg>
